<svg width="156" height="86" viewBox="0 0 156 86" fill="none" xmlns="http://www.w3.org/2000/svg">
<path d="M53.384 47.64C54.248 47.64 54.92 47.6 55.4 47.52C55.896 47.424 56.264 47.312 56.504 47.184C56.76 47.04 56.92 46.888 56.984 46.728C57.048 46.552 57.08 46.392 57.08 46.248C57.08 45.96 57.008 45.736 56.864 45.576C56.736 45.4 56.52 45.264 56.216 45.168C55.928 45.072 55.536 45.008 55.04 44.976C54.56 44.928 53.976 44.896 53.288 44.88C52.888 44.864 52.416 44.84 51.872 44.808C51.328 44.776 50.768 44.712 50.192 44.616C49.616 44.504 49.048 44.352 48.488 44.16C47.928 43.952 47.424 43.672 46.976 43.32C46.544 42.952 46.192 42.496 45.92 41.952C45.648 41.408 45.512 40.744 45.512 39.96V39.648C45.512 38.96 45.632 38.304 45.872 37.68C46.128 37.04 46.552 36.48 47.144 36C47.752 35.52 48.56 35.144 49.568 34.872C50.592 34.584 51.864 34.44 53.384 34.44H54.248C55.352 34.44 56.424 34.512 57.464 34.656C58.504 34.784 59.52 34.976 60.512 35.232V39.192C59.344 38.92 58.184 38.704 57.032 38.544C55.896 38.384 54.736 38.304 53.552 38.304C52.688 38.304 52.008 38.352 51.512 38.448C51.016 38.528 50.64 38.64 50.384 38.784C50.144 38.912 49.992 39.056 49.928 39.216C49.864 39.36 49.832 39.504 49.832 39.648C49.832 39.936 49.896 40.168 50.024 40.344C50.168 40.52 50.392 40.656 50.696 40.752C51 40.848 51.392 40.92 51.872 40.968C52.352 41 52.928 41.024 53.6 41.04C53.984 41.056 54.44 41.08 54.968 41.112C55.496 41.128 56.048 41.192 56.624 41.304C57.216 41.4 57.792 41.552 58.352 41.76C58.928 41.968 59.44 42.256 59.888 42.624C60.336 42.976 60.696 43.432 60.968 43.992C61.256 44.536 61.4 45.2 61.4 45.984V46.296C61.4 46.984 61.272 47.64 61.016 48.264C60.776 48.888 60.352 49.44 59.744 49.92C59.136 50.4 58.328 50.776 57.32 51.048C56.312 51.336 55.04 51.48 53.504 51.48H52.64C51.376 51.48 50.144 51.408 48.944 51.264C47.76 51.136 46.592 50.952 45.44 50.712V46.68C46.736 46.968 48.072 47.2 49.448 47.376C50.84 47.552 52.152 47.64 53.384 47.64ZM83.5078 38.76H72.4438V41.16H81.1078V45H72.4438V47.16H83.5078V51H68.1238V34.92H83.5078V38.76ZM89.7181 42.336C89.7181 41.248 89.8541 40.224 90.1261 39.264C90.3981 38.304 90.8621 37.472 91.5181 36.768C92.1741 36.048 93.0621 35.48 94.1821 35.064C95.3021 34.648 96.7101 34.44 98.4061 34.44H99.2701C100.358 34.44 101.414 34.512 102.438 34.656C103.462 34.784 104.47 34.976 105.462 35.232V39.144C104.902 38.984 104.334 38.848 103.758 38.736C103.198 38.624 102.638 38.536 102.078 38.472C101.534 38.392 101.006 38.336 100.494 38.304C99.9981 38.272 99.5501 38.256 99.1501 38.256C97.9021 38.256 96.9341 38.376 96.2461 38.616C95.5741 38.84 95.0781 39.16 94.7581 39.576C94.4541 39.992 94.2701 40.488 94.2061 41.064C94.1581 41.64 94.1341 42.272 94.1341 42.96C94.1341 43.648 94.1581 44.28 94.2061 44.856C94.2701 45.432 94.4541 45.936 94.7581 46.368C95.0781 46.784 95.5741 47.112 96.2461 47.352C96.9341 47.576 97.9021 47.688 99.1501 47.688C99.5501 47.688 99.9981 47.672 100.494 47.64C101.006 47.608 101.534 47.56 102.078 47.496C102.638 47.416 103.198 47.32 103.758 47.208C104.334 47.08 104.902 46.936 105.462 46.776V50.712C104.47 50.952 103.462 51.136 102.438 51.264C101.414 51.408 100.358 51.48 99.2701 51.48H98.4061C96.7101 51.48 95.3021 51.272 94.1821 50.856C93.0621 50.44 92.1741 49.88 91.5181 49.176C90.8621 48.456 90.3981 47.616 90.1261 46.656C89.8541 45.696 89.7181 44.672 89.7181 43.584V42.336ZM128.859 34.92V44.304C128.859 45.296 128.731 46.224 128.475 47.088C128.219 47.952 127.779 48.712 127.155 49.368C126.531 50.024 125.691 50.544 124.635 50.928C123.579 51.296 122.251 51.48 120.651 51.48H119.787C118.187 51.48 116.859 51.296 115.803 50.928C114.747 50.544 113.907 50.024 113.283 49.368C112.659 48.712 112.219 47.952 111.963 47.088C111.707 46.224 111.579 45.296 111.579 44.304V34.92H115.899V43.68C115.899 44.208 115.923 44.712 115.971 45.192C116.019 45.656 116.171 46.072 116.427 46.44C116.699 46.808 117.123 47.104 117.699 47.328C118.291 47.536 119.131 47.64 120.219 47.64C121.291 47.64 122.123 47.536 122.715 47.328C123.307 47.104 123.731 46.808 123.987 46.44C124.259 46.072 124.419 45.656 124.467 45.192C124.515 44.712 124.539 44.208 124.539 43.68V34.92H128.859ZM148.073 51L144.857 45.96C143.993 45.96 143.161 45.952 142.361 45.936C141.561 45.92 140.777 45.848 140.009 45.72V51H135.689V34.92C137.065 34.76 138.505 34.64 140.009 34.56C141.529 34.48 143.017 34.44 144.473 34.44H145.145C146.489 34.44 147.601 34.584 148.481 34.872C149.361 35.144 150.065 35.52 150.593 36C151.121 36.48 151.489 37.04 151.697 37.68C151.905 38.32 152.009 39 152.009 39.72V40.68C152.009 41.688 151.809 42.608 151.409 43.44C151.009 44.256 150.297 44.888 149.273 45.336L152.249 50.04V51H148.073ZM144.521 38.28C143.961 38.28 143.265 38.296 142.433 38.328C141.617 38.36 140.809 38.416 140.009 38.496V41.904C140.761 42 141.473 42.064 142.145 42.096C142.817 42.112 143.361 42.12 143.777 42.12C144.737 42.12 145.481 42.08 146.009 42C146.537 41.904 146.921 41.768 147.161 41.592C147.417 41.416 147.569 41.192 147.617 40.92C147.665 40.648 147.689 40.32 147.689 39.936C147.689 39.728 147.673 39.528 147.641 39.336C147.609 39.128 147.489 38.944 147.281 38.784C147.089 38.624 146.777 38.504 146.345 38.424C145.913 38.328 145.305 38.28 144.521 38.28Z" fill="#646464"/>
<path fill-rule="evenodd" clip-rule="evenodd" d="M10 0C4.47715 0 0 4.47715 0 10V76C0 81.5229 4.47715 86 10 86H96C101.523 86 106 81.5229 106 76V69H101V76C101 78.7614 98.7614 81 96 81H10C7.23857 81 5 78.7614 5 76V10C5 7.23858 7.23858 5 10 5H96C98.7614 5 101 7.23858 101 10V17H106V10C106 4.47715 101.523 0 96 0H10ZM100 17V10C100 7.79086 98.2091 6 96 6H10C7.79086 6 6 7.79086 6 10V76C6 78.2091 7.79086 80 10 80H96C98.2091 80 100 78.2091 100 76V69H53C38.6406 69 27 57.3594 27 43C27 28.6406 38.6406 17 53 17H100Z" fill="#646464"/>
</svg>
